<svg width="17" height="17" viewBox="0 0 17 17" fill="none" xmlns="http://www.w3.org/2000/svg">
<path d="M11.5003 2.4999C9.01525 0.0148529 4.98515 0.0148519 2.5001 2.4999C0.0150506 4.98495 0.0150506 9.01505 2.5001 11.5001C4.70153 13.7015 8.11577 13.95 10.5927 12.251L13.6909 15.7166C14.2176 16.3081 15.1333 16.3324 15.6925 15.7733L15.7735 15.6923C16.3326 15.1331 16.3083 14.2174 15.7168 13.6907L12.2512 10.5925C13.9529 8.11287 13.7017 4.70133 11.5003 2.4999ZM9.95525 9.95505C8.32376 11.5865 5.67664 11.5865 4.04515 9.95505C2.41366 8.32356 2.41366 5.67644 4.04515 4.04495C5.67664 2.41346 8.32376 2.41346 9.95525 4.04495C11.5894 5.67914 11.5867 8.32356 9.95525 9.95505Z" fill="#C0C4D4"/>
</svg>
