<svg width="50" height="49" viewBox="0 0 50 49" fill="none" xmlns="http://www.w3.org/2000/svg">
<path fill-rule="evenodd" clip-rule="evenodd" d="M5.95294 0C2.66522 0 0 2.66522 0 5.95294V42.5395C0 45.8272 2.66523 48.4924 5.95295 48.4924H43.6549C46.9426 48.4924 49.6078 45.8272 49.6078 42.5395V5.95294C49.6078 2.66522 46.9426 0 43.6549 0H5.95294ZM30.0711 10.9186C31.7113 11.5837 33.1998 12.5613 34.4496 13.7944H34.4479C35.7066 15.0183 36.7051 16.4736 37.3859 18.0765C38.0667 19.6793 38.4163 21.3979 38.4146 23.1334C38.4078 30.4155 32.3453 36.3417 24.9026 36.3417H24.8958C22.6397 36.3411 20.4196 35.7886 18.4379 34.7344L11.2747 36.5699L13.1847 29.7259C12.0073 27.7188 11.3837 25.452 11.3837 23.1218C11.3905 15.8464 17.4548 9.92019 24.8958 9.92019C26.6715 9.91404 28.4308 10.2534 30.0711 10.9186ZM19.1774 32.5741C20.9081 33.5778 22.8834 34.1071 24.8958 34.1064C31.0827 34.1064 36.1212 29.1879 36.128 23.1268C36.1316 21.6851 35.8431 20.257 35.2793 18.9248C34.7155 17.5927 33.8874 16.3828 32.8428 15.3651C31.8019 14.3433 30.5644 13.5331 29.2016 12.9811C27.8388 12.429 26.3777 12.1462 24.9026 12.1488C18.7106 12.1488 13.6721 17.0756 13.6721 23.1151C13.6681 25.1805 14.263 27.2047 15.3879 28.9531L15.6537 29.3711L14.5189 33.4235L18.7685 32.3342L19.1774 32.5741ZM28.75 24.8124C29.0618 24.9256 30.7198 25.7234 31.0554 25.8883C31.1225 25.9211 31.1852 25.9506 31.2433 25.9779C31.4773 26.088 31.636 26.1627 31.7029 26.2748C31.7881 26.413 31.7881 27.0726 31.5087 27.8454C31.2241 28.6166 29.8763 29.3195 29.2288 29.4161C28.6461 29.4977 27.9151 29.536 27.1057 29.2828C26.6133 29.1296 25.9829 28.9281 25.182 28.5866C21.9983 27.241 19.8566 24.2212 19.4703 23.6765C19.4454 23.6414 19.4278 23.6166 19.4177 23.6031L19.4149 23.5996C19.2347 23.3653 18.0375 21.8091 18.0375 20.1903C18.0375 18.662 18.8025 17.8653 19.1525 17.5009C19.1751 17.4773 19.196 17.4555 19.2149 17.4354C19.328 17.3098 19.4665 17.2084 19.6216 17.1376C19.7767 17.0668 19.9451 17.0282 20.1163 17.024C20.3429 17.024 20.5695 17.024 20.7638 17.0357C20.788 17.0366 20.8131 17.0363 20.8391 17.0359C21.0363 17.033 21.2811 17.0295 21.522 17.602C21.6422 17.8792 21.8317 18.3296 22.017 18.77C22.2703 19.3721 22.5156 19.9552 22.5648 20.0504C22.6483 20.2153 22.7011 20.4052 22.5904 20.6284C22.5744 20.66 22.5596 20.69 22.5454 20.7187C22.4611 20.8895 22.3989 21.0155 22.253 21.178C22.1902 21.2487 22.1248 21.3263 22.0598 21.4034C21.9502 21.5335 21.8417 21.6623 21.7486 21.7543C21.5799 21.9192 21.4044 22.0958 21.5987 22.4255C21.7998 22.7537 22.4728 23.8363 23.4781 24.7108C24.5497 25.6488 25.4833 26.0462 25.9602 26.2493C26.0566 26.2903 26.1343 26.3234 26.1907 26.3514C26.5281 26.5146 26.7292 26.4896 26.9234 26.2681C27.1177 26.0532 27.7652 25.3054 27.9918 24.9773C28.2133 24.6475 28.4399 24.7041 28.75 24.8124Z" fill="#1F6092"/>
</svg>
