<svg width="50" height="49" viewBox="0 0 50 49" fill="none" xmlns="http://www.w3.org/2000/svg">
<path fill-rule="evenodd" clip-rule="evenodd" d="M6.34503 0C3.05731 0 0.39209 2.66522 0.39209 5.95294V42.5395C0.39209 45.8272 3.05732 48.4924 6.34504 48.4924H44.047C47.3347 48.4924 49.9999 45.8272 49.9999 42.5395V5.95294C49.9999 2.66522 47.3347 0 44.047 0H6.34503ZM10.6746 22.3492L34.6435 13.3717C35.7372 12.8911 36.7944 13.6277 36.3766 15.2546L32.2953 33.9372C32.0101 35.266 31.1868 35.5812 30.0404 34.968L23.823 30.5074L20.834 33.3305C20.8229 33.341 20.8118 33.3514 20.8008 33.3618C20.4673 33.6749 20.1909 33.9346 19.5889 33.9346L20.0134 27.7736L20.0107 27.7722H20.0134L31.5491 17.6602C32.0547 17.2242 31.4396 17.0102 30.7663 17.4081L16.5283 26.1335L10.3745 24.2689C9.0483 23.8737 9.03883 22.9874 10.6746 22.3492Z" fill="#1F6092"/>
</svg>
