<svg width="22" height="26" viewBox="0 0 22 26" fill="none" xmlns="http://www.w3.org/2000/svg">
<path fill-rule="evenodd" clip-rule="evenodd" d="M21.5983 22.5233C21.4522 22.689 21.276 22.9009 21.0892 23.1249C20.6231 23.6878 20.0408 24.3874 19.6758 24.6711C17.7555 26.164 15.1865 25.4497 13.3693 24.5883C10.9721 23.4519 8.36225 21.3574 6.01887 18.691C3.67329 16.0244 1.83242 13.0543 0.833613 10.3286C0.0773629 8.26078 -0.551829 5.33745 0.760566 3.1523C1.00978 2.73677 1.62617 2.07531 2.12023 1.54398C2.31788 1.33211 2.50265 1.13193 2.64874 0.966256C2.90811 0.672641 3.25912 0.507812 3.62501 0.507812C3.99091 0.507812 4.34191 0.672641 4.60128 0.966256L8.13452 4.9848C8.39246 5.27987 8.53725 5.6791 8.53725 6.09525C8.53725 6.51139 8.39246 6.91062 8.13452 7.20569L7.17202 8.29852C6.85058 8.66154 6.64076 9.13295 6.5738 9.64257C6.50684 10.1522 6.58631 10.6728 6.80038 11.1269C8.12424 13.9696 10.168 16.2944 12.6669 17.8001C13.066 18.0435 13.5235 18.1338 13.9713 18.0575C14.4191 17.9812 14.8333 17.7424 15.1521 17.3766L16.1123 16.2837C16.3716 15.9901 16.7226 15.8252 17.0885 15.8252C17.4544 15.8252 17.8054 15.9901 18.0648 16.2837L21.5983 20.3029C21.8562 20.5979 22.001 20.997 22.001 21.4131C22.001 21.8292 21.8562 22.2284 21.5983 22.5233Z" fill="#10456F"/>
</svg>
